<?xml version="1.0" encoding="utf-8"?>
<!-- Generator: Adobe Illustrator 23.0.2, SVG Export Plug-In . SVG Version: 6.00 Build 0)  -->
<svg version="1.1" id="Layer_1" xmlns="http://www.w3.org/2000/svg" xmlns:xlink="http://www.w3.org/1999/xlink" x="0px" y="0px"
	 viewBox="0 0 100 100" style="enable-background:new 0 0 100 100;" xml:space="preserve">
<style type="text/css">
	.st0{fill:#9CDAF1;}
	.st1{fill:#7DBBE6;}
	.st2{fill:#F4CBB2;}
	.st3{fill:#FFFFFF;}
	.st4{fill:#AD5C51;}
	.st5{fill:#C3E4D8;}
	.st6{fill:#647984;}
	.st7{font-family:'OpenSans-SemiBold';}
	.st8{font-size:12px;}
</style>
<g transform="matrix(1,0,0,-1,197.42373,1300.6102)">
	<path d="M-102.72,1218.44c0-5.08-1.55-9.09-4.64-12.03c-3.09-2.94-7.2-4.41-12.32-4.41h-55.5c-5.12,0-9.23,1.47-12.32,4.41
		s-4.64,6.95-4.64,12.03c0,2.24,0.07,4.43,0.22,6.57c0.15,2.14,0.44,4.44,0.89,6.92s1.01,4.77,1.68,6.89
		c0.68,2.12,1.59,4.18,2.73,6.19c1.14,2.01,2.46,3.72,3.94,5.14s3.29,2.55,5.43,3.4c2.14,0.85,4.5,1.27,7.08,1.27
		c0.38,0,1.27-0.46,2.67-1.37c1.4-0.91,2.97-1.93,4.73-3.05c1.76-1.12,4.04-2.14,6.86-3.05c2.81-0.91,5.64-1.37,8.48-1.37
		s5.66,0.46,8.48,1.37c2.81,0.91,5.1,1.93,6.86,3.05c1.76,1.12,3.33,2.14,4.73,3.05c1.4,0.91,2.29,1.37,2.67,1.37
		c2.58,0,4.94-0.42,7.08-1.27c2.14-0.85,3.95-1.98,5.43-3.4s2.79-3.13,3.94-5.14c1.14-2.01,2.05-4.07,2.73-6.19
		c0.68-2.12,1.24-4.41,1.68-6.89c0.44-2.48,0.74-4.78,0.89-6.92C-102.8,1222.87-102.72,1220.68-102.72,1218.44z M-123.04,1275.14
		c0-6.73-2.38-12.48-7.14-17.24c-4.76-4.76-10.51-7.14-17.24-7.14s-12.48,2.38-17.24,7.14c-4.76,4.76-7.14,10.51-7.14,17.24
		c0,6.73,2.38,12.48,7.14,17.24c4.76,4.76,10.51,7.14,17.24,7.14s12.48-2.38,17.24-7.14
		C-125.42,1287.61-123.04,1281.87-123.04,1275.14z"/>
</g>
<text transform="matrix(1 0 0 1 33.3445 81.522)" class="st3 st7 st8">GUEST</text>
</svg>
