<?xml version="1.0" encoding="utf-8"?>
<!-- Generator: Adobe Illustrator 23.0.3, SVG Export Plug-In . SVG Version: 6.00 Build 0)  -->
<svg version="1.1" id="Layer_1" xmlns="http://www.w3.org/2000/svg" xmlns:xlink="http://www.w3.org/1999/xlink" x="0px" y="0px"
	 viewBox="0 0 100 100" style="enable-background:new 0 0 100 100;" xml:space="preserve">
<style type="text/css">
	.st0{enable-background:new    ;}
	.st1{fill:#FFFFFF;}
</style>
<g transform="matrix(1,0,0,-1,197.42373,1300.6102)">
	<path d="M-102.7,1218.4c0-5.1-1.6-9.1-4.6-12c-3.1-2.9-7.2-4.4-12.3-4.4h-55.5c-5.1,0-9.2,1.5-12.3,4.4s-4.6,6.9-4.6,12
		c0,2.2,0.1,4.4,0.2,6.6c0.1,2.1,0.4,4.4,0.9,6.9s1,4.8,1.7,6.9c0.7,2.1,1.6,4.2,2.7,6.2c1.1,2,2.5,3.7,3.9,5.1s3.3,2.6,5.4,3.4
		s4.5,1.3,7.1,1.3c0.4,0,1.3-0.5,2.7-1.4s3-1.9,4.7-3.1s4-2.1,6.9-3.1c2.8-0.9,5.6-1.4,8.5-1.4s5.7,0.5,8.5,1.4
		c2.8,0.9,5.1,1.9,6.9,3.1s3.3,2.1,4.7,3.1s2.3,1.4,2.7,1.4c2.6,0,4.9-0.4,7.1-1.3s3.9-2,5.4-3.4s2.8-3.1,3.9-5.1
		c1.1-2,2.1-4.1,2.7-6.2s1.2-4.4,1.7-6.9s0.7-4.8,0.9-6.9C-102.8,1222.9-102.7,1220.7-102.7,1218.4z M-123,1275.1
		c0-6.7-2.4-12.5-7.1-17.2c-4.8-4.8-10.5-7.1-17.2-7.1s-12.5,2.4-17.2,7.1c-4.8,4.8-7.1,10.5-7.1,17.2s2.4,12.5,7.1,17.2
		s10.5,7.1,17.2,7.1s12.5-2.4,17.2-7.1C-125.4,1287.6-123,1281.9-123,1275.1z"/>
</g>
<g class="st0">
	<path class="st1" d="M24.9,74.5h5.9v7.7c-1,0.3-1.9,0.5-2.7,0.7c-0.8,0.1-1.7,0.2-2.6,0.2c-2.2,0-4-0.7-5.1-2
		c-1.2-1.3-1.8-3.2-1.8-5.7c0-2.4,0.7-4.3,2.1-5.6c1.4-1.3,3.3-2,5.7-2c1.5,0,3,0.3,4.4,0.9l-1,2.5c-1.1-0.5-2.2-0.8-3.4-0.8
		c-1.4,0-2.5,0.5-3.3,1.4c-0.8,0.9-1.2,2.1-1.2,3.7c0,1.6,0.3,2.8,1,3.7c0.7,0.9,1.6,1.3,2.9,1.3c0.7,0,1.3-0.1,2-0.2v-3.1h-2.8
		V74.5z"/>
	<path class="st1" d="M45.5,68v9.6c0,1.1-0.2,2.1-0.7,2.9c-0.5,0.8-1.2,1.5-2.1,1.9c-0.9,0.4-2,0.7-3.3,0.7c-1.9,0-3.4-0.5-4.5-1.5
		s-1.6-2.3-1.6-4V68h3.1v9.1c0,1.1,0.2,2,0.7,2.5c0.5,0.5,1.2,0.8,2.3,0.8c1,0,1.8-0.3,2.2-0.8c0.5-0.5,0.7-1.4,0.7-2.5V68H45.5z"/>
	<path class="st1" d="M56.7,82.9h-8.6V68h8.6v2.6h-5.4v3.3h5v2.6h-5v3.8h5.4V82.9z"/>
	<path class="st1" d="M68.6,78.7c0,1.3-0.5,2.4-1.4,3.2c-1,0.8-2.3,1.2-4,1.2c-1.6,0-3-0.3-4.2-0.9v-2.9c1,0.4,1.9,0.8,2.5,0.9
		c0.7,0.2,1.3,0.3,1.9,0.3c0.7,0,1.2-0.1,1.6-0.4c0.4-0.3,0.6-0.7,0.6-1.2c0-0.3-0.1-0.6-0.2-0.8c-0.2-0.2-0.4-0.4-0.7-0.7
		s-1-0.5-1.9-1c-0.9-0.4-1.6-0.8-2-1.2c-0.5-0.4-0.8-0.9-1.1-1.4c-0.3-0.5-0.4-1.1-0.4-1.8c0-1.3,0.4-2.3,1.3-3.1
		c0.9-0.8,2.1-1.1,3.7-1.1c0.8,0,1.5,0.1,2.2,0.3c0.7,0.2,1.4,0.4,2.2,0.8l-1,2.5c-0.8-0.3-1.4-0.6-2-0.7c-0.5-0.1-1-0.2-1.5-0.2
		c-0.6,0-1.1,0.1-1.4,0.4c-0.3,0.3-0.5,0.6-0.5,1.1c0,0.3,0.1,0.5,0.2,0.7c0.1,0.2,0.3,0.4,0.6,0.6c0.3,0.2,0.9,0.5,2,1
		c1.4,0.7,2.3,1.3,2.9,2C68.3,76.9,68.6,77.8,68.6,78.7z"/>
	<path class="st1" d="M77.3,82.9h-3.2V70.6h-4V68h11.2v2.6h-4V82.9z"/>
</g>
</svg>
